<svg width="122" height="22" viewBox="0 0 122 22" fill="currentColor" xmlns="http://www.w3.org/2000/svg">
<path d="M0.740234 0.521484H9.30078C10.5664 0.521484 11.709 0.65625 12.7285 0.925781C13.748 1.18359 14.6152 1.57031 15.3301 2.08594C16.0566 2.60156 16.6133 3.24609 17 4.01953C17.3867 4.78125 17.5801 5.66602 17.5801 6.67383C17.5801 7.86914 17.3809 8.86523 16.9824 9.66211C16.584 10.459 16.0332 11.1094 15.3301 11.6133C14.627 12.1172 13.8125 12.5391 12.8867 12.8789L11.1992 13.8633H3.92188L3.88672 9.9082H9.33594C10.0391 9.9082 10.625 9.80273 11.0938 9.5918C11.5625 9.36914 11.9141 9.05273 12.1484 8.64258C12.3828 8.23242 12.5 7.74609 12.5 7.18359C12.5 6.60938 12.377 6.12305 12.1309 5.72461C11.8848 5.32617 11.5215 5.02148 11.041 4.81055C10.5723 4.59961 9.99219 4.49414 9.30078 4.49414H5.82031V21H0.740234V0.521484ZM12.8867 21L7.98242 11.9648L13.3613 11.9121L18.3535 20.7891V21H12.8867ZM35.9844 17.0449V21H24.207V17.0449H35.9844ZM26 0.521484V21H20.9375V0.521484H26ZM34.4727 8.43164V12.3867H24.207V8.43164H34.4727ZM36.002 0.521484V4.49414H24.207V0.521484H36.002ZM50.8555 14.0215H55.9355C55.8535 15.4746 55.4375 16.7461 54.6875 17.8359C53.9375 18.9258 52.9004 19.7754 51.5762 20.3848C50.252 20.9824 48.6934 21.2812 46.9004 21.2812C45.4355 21.2812 44.1289 21.0527 42.9805 20.5957C41.8438 20.1387 40.877 19.4766 40.0801 18.6094C39.2832 17.7422 38.6738 16.6934 38.252 15.4629C37.8418 14.2324 37.6367 12.8379 37.6367 11.2793V10.2598C37.6367 8.70117 37.8535 7.30664 38.2871 6.07617C38.7207 4.83398 39.3418 3.7793 40.1504 2.91211C40.959 2.04492 41.9258 1.38281 43.0508 0.925781C44.1758 0.457031 45.4355 0.222656 46.8301 0.222656C48.7285 0.222656 50.3281 0.544922 51.6289 1.18945C52.9414 1.83398 53.9551 2.71875 54.6699 3.84375C55.3965 4.95703 55.8242 6.22852 55.9531 7.6582H50.8906C50.8555 7.00195 50.7031 6.41602 50.4336 5.90039C50.1641 5.37305 49.7363 4.95703 49.1504 4.65234C48.5762 4.34766 47.8027 4.19531 46.8301 4.19531C46.1504 4.19531 45.5527 4.31836 45.0371 4.56445C44.5215 4.81055 44.0879 5.18555 43.7363 5.68945C43.3965 6.19336 43.1387 6.82617 42.9629 7.58789C42.7871 8.33789 42.6992 9.22266 42.6992 10.2422V11.2793C42.6992 12.3105 42.7754 13.207 42.9277 13.9688C43.0918 14.7305 43.3438 15.3633 43.6836 15.8672C44.0234 16.3594 44.457 16.7285 44.9844 16.9746C45.5234 17.2207 46.1621 17.3438 46.9004 17.3438C47.7441 17.3438 48.4531 17.2266 49.0273 16.9922C49.6016 16.7461 50.041 16.377 50.3457 15.8848C50.6504 15.3926 50.8203 14.7715 50.8555 14.0215ZM64.0039 0.521484V21H58.9238V0.521484H64.0039ZM76.5723 14.1621H71.0527V10.207H76.5723C77.3457 10.207 77.9844 10.0957 78.4883 9.87305C78.9922 9.63867 79.3613 9.32812 79.5957 8.94141C79.8418 8.54297 79.9648 8.0918 79.9648 7.58789C79.9648 7.03711 79.8418 6.52734 79.5957 6.05859C79.3613 5.58984 78.9922 5.21484 78.4883 4.93359C77.9844 4.64062 77.3457 4.49414 76.5723 4.49414H72.9336V21H67.8711V0.521484H76.5723C78.3301 0.521484 79.8359 0.826172 81.0898 1.43555C82.3555 2.04492 83.3223 2.87695 83.9902 3.93164C84.6699 4.98633 85.0098 6.19336 85.0098 7.55273C85.0098 8.53711 84.8164 9.43945 84.4297 10.2598C84.0547 11.0684 83.498 11.7656 82.7598 12.3516C82.0332 12.9375 81.1484 13.3887 80.1055 13.7051C79.0742 14.0098 77.8965 14.1621 76.5723 14.1621ZM103.027 17.0449V21H91.25V17.0449H103.027ZM93.043 0.521484V21H87.9805V0.521484H93.043ZM101.516 8.43164V12.3867H91.25V8.43164H101.516ZM103.045 0.521484V4.49414H91.25V0.521484H103.045ZM116.738 15.5156C116.738 15.1875 116.674 14.8887 116.545 14.6191C116.416 14.3379 116.199 14.0859 115.895 13.8633C115.602 13.6406 115.203 13.4297 114.699 13.2305C114.195 13.0312 113.568 12.8438 112.818 12.668C111.529 12.3633 110.41 12.0293 109.461 11.666C108.523 11.291 107.744 10.8633 107.123 10.3828C106.514 9.89062 106.057 9.30469 105.752 8.625C105.447 7.94531 105.295 7.14844 105.295 6.23438C105.295 5.35547 105.488 4.54688 105.875 3.80859C106.262 3.07031 106.807 2.4375 107.51 1.91016C108.213 1.38281 109.045 0.972656 110.006 0.679688C110.967 0.386719 112.016 0.240234 113.152 0.240234C114.805 0.240234 116.264 0.498047 117.529 1.01367C118.807 1.5293 119.803 2.26172 120.518 3.21094C121.232 4.14844 121.59 5.2793 121.59 6.60352H116.527C116.527 6.11133 116.393 5.66016 116.123 5.25C115.865 4.83984 115.49 4.51172 114.998 4.26562C114.506 4.00781 113.896 3.87891 113.17 3.87891C112.467 3.87891 111.887 3.99023 111.43 4.21289C110.973 4.42383 110.633 4.69922 110.41 5.03906C110.199 5.36719 110.094 5.70703 110.094 6.05859C110.094 6.35156 110.158 6.62109 110.287 6.86719C110.428 7.11328 110.645 7.3418 110.938 7.55273C111.242 7.75195 111.635 7.94531 112.115 8.13281C112.607 8.30859 113.199 8.48438 113.891 8.66016C115.18 8.94141 116.299 9.27539 117.248 9.66211C118.209 10.0371 119.006 10.4883 119.639 11.0156C120.283 11.543 120.764 12.1699 121.08 12.8965C121.396 13.6113 121.555 14.4375 121.555 15.375C121.555 16.3125 121.361 17.1504 120.975 17.8887C120.6 18.6152 120.055 19.2305 119.34 19.7344C118.637 20.2383 117.787 20.625 116.791 20.8945C115.807 21.1523 114.705 21.2812 113.486 21.2812C112.396 21.2812 111.324 21.1523 110.27 20.8945C109.215 20.6367 108.26 20.2383 107.404 19.6992C106.549 19.1484 105.863 18.4453 105.348 17.5898C104.844 16.7344 104.592 15.709 104.592 14.5137H109.672C109.672 15.0762 109.754 15.5566 109.918 15.9551C110.094 16.3535 110.352 16.6816 110.691 16.9395C111.043 17.1855 111.471 17.3672 111.975 17.4844C112.49 17.6016 113.082 17.6602 113.75 17.6602C114.5 17.6602 115.092 17.5547 115.525 17.3438C115.971 17.1211 116.281 16.8457 116.457 16.5176C116.645 16.1895 116.738 15.8555 116.738 15.5156Z"/>
</svg>
